<svg id="Group_41104" data-name="Group 41104" xmlns="http://www.w3.org/2000/svg" width="13.669" height="19.23" viewBox="0 0 13.669 19.23">
  <path id="Path_29870" data-name="Path 29870" d="M11.64,10.612h-.072a.49.49,0,0,0-.163,0,4.645,4.645,0,1,1,.262,0ZM9.393,9.077C7.56,9.077,8.164,4.1,8.164,5.936a3.308,3.308,0,0,0,3.205,3.322,1.49,1.49,0,0,1,.289,0c1.77-.081-1.576,1.788-1.567,0C10.091,7.425,11.226,9.077,9.393,9.077Z" transform="translate(-4.814 -1.25)" fill="#1cd2d5"/>
  <path id="Path_29871" data-name="Path 29871" d="M11.434,21.567a8.918,8.918,0,0,1-4.893-1.354A3.874,3.874,0,0,1,4.6,17.008a3.914,3.914,0,0,1,1.941-3.223,9.559,9.559,0,0,1,9.787,0,3.9,3.9,0,0,1,1.941,3.205,3.914,3.914,0,0,1-1.941,3.223A8.94,8.94,0,0,1,11.434,21.567ZM6.541,19.094c-.867.578-.587-2.853-.587-2.077A2.59,2.59,0,0,0,7.29,19.094a8.159,8.159,0,0,0,8.288,0c.867-.578-.806,1.9-.806,1.12s-4.338,1.16-5.2.591C7.328,19.306,9.088,20.769,6.541,19.094Z" transform="translate(-4.6 -2.337)" fill="#1cd2d5"/>
</svg>
