<svg id="Group_41104" data-name="Group 41104" xmlns="http://www.w3.org/2000/svg" width="13.669" height="19.23" viewBox="0 0 13.669 19.23">
  <path id="Path_29870" data-name="Path 29870" d="M11.64,10.612h-.072a.49.49,0,0,0-.163,0,4.645,4.645,0,1,1,.262,0ZM11.5,2.6a3.328,3.328,0,0,0-.126,6.654,1.49,1.49,0,0,1,.289,0A3.329,3.329,0,0,0,11.5,2.6Z" transform="translate(-4.814 -1.25)" fill="#727c8e"/>
  <path id="Path_29871" data-name="Path 29871" d="M11.434,21.567a8.918,8.918,0,0,1-4.893-1.354A3.874,3.874,0,0,1,4.6,17.008a3.914,3.914,0,0,1,1.941-3.223,9.559,9.559,0,0,1,9.787,0,3.9,3.9,0,0,1,1.941,3.205,3.914,3.914,0,0,1-1.941,3.223A8.94,8.94,0,0,1,11.434,21.567ZM7.29,14.923a2.6,2.6,0,0,0-1.336,2.095A2.59,2.59,0,0,0,7.29,19.094a8.159,8.159,0,0,0,8.288,0A2.6,2.6,0,0,0,16.914,17a2.59,2.59,0,0,0-1.336-2.077A8.2,8.2,0,0,0,7.29,14.923Z" transform="translate(-4.6 -2.337)" fill="#727c8e"/>
</svg>
