<svg id="Group_41116" data-name="Group 41116" xmlns="http://www.w3.org/2000/svg" width="18.811" height="19.23" viewBox="0 0 18.811 19.23">
  <path id="Path_29879" data-name="Path 29879" d="M16.4,16.008H6.876A3.187,3.187,0,0,1,3.71,12.565l.742-8.909a.982.982,0,0,0-.984-1.064H1.921a.671.671,0,0,1,0-1.342H3.477A2.313,2.313,0,0,1,5.7,2.932H16.876a3.19,3.19,0,0,1,2.343,1,3.152,3.152,0,0,1,.832,2.406l-.483,6.708A3.21,3.21,0,0,1,16.4,16.008ZM5.749,4.264l-.7,8.408a1.825,1.825,0,0,0,1.825,1.986H16.4c.93,0-.108-1.281,1.135,0l-11.185.807c.036-.528-.478-1.031-.827-1.4s-.546-.251-1.073-.251l1.3-9.561Z" transform="translate(-1.25 -1.25)" fill="#1cd2d5"/>
  <path id="Path_29880" data-name="Path 29880" d="M16.039,22.328a1.789,1.789,0,1,1,1.789-1.789A1.794,1.794,0,0,1,16.039,22.328Zm0-2.236a.447.447,0,1,0,.447.447A.443.443,0,0,0,16.039,20.092Z" transform="translate(-2.622 -3.097)" fill="#1cd2d5"/>
  <path id="Path_29881" data-name="Path 29881" d="M8.039,22.328a1.789,1.789,0,1,1,1.789-1.789A1.794,1.794,0,0,1,8.039,22.328Zm0-2.236a.447.447,0,1,0,.447.447A.443.443,0,0,0,8.039,20.092Z" transform="translate(-1.778 -3.097)" fill="#1cd2d5"/>
  <path id="Path_29882" data-name="Path 29882" d="M19.654,8.592H8.921a.671.671,0,1,1,0-1.342H19.654a.671.671,0,0,1,0,1.342Z" transform="translate(-1.989 -1.883)" fill="#fff"/>
</svg>
