<svg id="Group_41118" data-name="Group 41118" xmlns="http://www.w3.org/2000/svg" width="20.168" height="19.231" viewBox="0 0 20.168 19.231">
  <path id="Path_29887" data-name="Path 29887" d="M15.217,19.04A7.394,7.394,0,0,1,14.447,19a10.169,10.169,0,0,1-1.614-.272l-1.576-.375c-4.325-1.023-5.742-3.312-4.728-7.627L7.449,6.8A9.97,9.97,0,0,1,8.2,4.583c1.614-3.33,4.7-3.03,6.9-2.514l1.567.366c2.2.516,3.584,1.332,4.362,2.58s.891,2.852.375,5.047l-.919,3.921C19.673,17.417,17.993,19.04,15.217,19.04ZM12.693,3.157A3.243,3.243,0,0,0,9.466,5.193a9.536,9.536,0,0,0-.647,1.923L7.9,11.047c-.835,3.546.131,5.094,3.678,5.938l1.576.375a9.667,9.667,0,0,0,1.417.235c2.552.253,3.818-.863,4.531-3.931l.919-3.921c.422-1.811.366-3.077-.2-3.987s-1.67-1.529-3.49-1.951l-1.567-.366A8.994,8.994,0,0,0,12.693,3.157Z" transform="translate(-1.543 -1.751)" fill="#727c8e"/>
  <path id="Path_29888" data-name="Path 29888" d="M7.891,21.143c-2.411,0-3.95-1.445-4.935-4.494l-1.2-3.706C.424,8.816,1.615,6.489,5.724,5.157l1.482-.478a9.777,9.777,0,0,1,1.182-.31.679.679,0,0,1,.694.263.728.728,0,0,1,.075.741A8.744,8.744,0,0,0,8.52,7.287L7.6,11.217c-.835,3.546.131,5.094,3.678,5.938l1.576.375a9.667,9.667,0,0,0,1.417.235.722.722,0,0,1,.629.525.705.705,0,0,1-.281.76,9.279,9.279,0,0,1-2.383,1.1l-1.482.488A9.652,9.652,0,0,1,7.891,21.143ZM7.375,6.1,6.165,6.5C2.816,7.577,2.018,9.153,3.1,12.512l1.2,3.706c1.088,3.349,2.664,4.156,6.014,3.077l1.482-.488c.056-.019.1-.038.159-.056l-.994-.235C6.634,17.494,5.218,15.2,6.231,10.889L7.15,6.958C7.216,6.658,7.291,6.367,7.375,6.1Z" transform="translate(-1.235 -1.912)" fill="#727c8e"/>
  <path id="Path_29889" data-name="Path 29889" d="M17.143,10.342a1.282,1.282,0,0,1-.178-.019l-4.55-1.154a.7.7,0,0,1,.347-1.36l4.55,1.154a.7.7,0,0,1-.169,1.379Z" transform="translate(-1.894 -2.125)" fill="#727c8e"/>
  <path id="Path_29890" data-name="Path 29890" d="M14.333,13.752a1.282,1.282,0,0,1-.178-.019l-2.73-.694a.7.7,0,0,1,.347-1.36l2.73.694a.7.7,0,0,1,.507.854A.683.683,0,0,1,14.333,13.752Z" transform="translate(-1.833 -2.364)" fill="#727c8e"/>
</svg>
