<svg id="vuesax_linear_clipboard-text" data-name="vuesax/linear/clipboard-text" xmlns="http://www.w3.org/2000/svg" width="20.023" height="20.023" viewBox="0 0 20.023 20.023">
  <g id="clipboard-text">
    <path id="Vector" d="M0,0H20.023V20.023H0Z" fill="none" opacity="0"/>
    <g id="Group_41194" data-name="Group 41194" transform="translate(0.419 0.585)">
      <path id="Path_29925" data-name="Path 29925" d="M13.823,17.936a7.1,7.1,0,0,1-2.755-.613,14.571,14.571,0,0,1-2.786-1.6A24.225,24.225,0,0,1,5.666,13.5a23.187,23.187,0,0,1-2.227-2.608A14.483,14.483,0,0,1,1.855,8.126,7.186,7.186,0,0,1,1.25,5.356,4.677,4.677,0,0,1,1.568,3.64a4.145,4.145,0,0,1,1.04-1.506,2.818,2.818,0,0,1,2.01-.885,2.1,2.1,0,0,1,.877.194,1.776,1.776,0,0,1,.745.629l1.8,2.538a3.007,3.007,0,0,1,.373.66,1.743,1.743,0,0,1,.155.691,1.647,1.647,0,0,1-.248.854,3.1,3.1,0,0,1-.52.66l-.528.551A.378.378,0,0,0,7.3,8.08a5.968,5.968,0,0,0,.636.861c.38.435.737.83,1.094,1.2.458.45.838.807,1.2,1.1a5.055,5.055,0,0,0,.9.644l-.016.039.567-.559a2.9,2.9,0,0,1,.7-.536,1.638,1.638,0,0,1,1.513-.085,3.533,3.533,0,0,1,.652.365l2.577,1.832a1.668,1.668,0,0,1,.621.737,2.246,2.246,0,0,1,.171.838,2.588,2.588,0,0,1-.248,1.094,3.615,3.615,0,0,1-.621.931A3.981,3.981,0,0,1,15.553,17.6,4.582,4.582,0,0,1,13.823,17.936ZM4.618,2.414a1.7,1.7,0,0,0-1.2.559,2.977,2.977,0,0,0-.761,1.094,3.4,3.4,0,0,0-.241,1.288,5.984,5.984,0,0,0,.512,2.313A12.955,12.955,0,0,0,4.385,10.2a21.472,21.472,0,0,0,2.1,2.468,21.852,21.852,0,0,0,2.476,2.111,12.61,12.61,0,0,0,2.553,1.467,4.629,4.629,0,0,0,3.593.272,2.865,2.865,0,0,0,1.063-.768,2.517,2.517,0,0,0,.435-.652,1.375,1.375,0,0,0,.14-.6.927.927,0,0,0-.085-.388.587.587,0,0,0-.217-.233l-2.577-1.832a2.225,2.225,0,0,0-.427-.241.408.408,0,0,0-.5.023,1.769,1.769,0,0,0-.45.349l-.59.582a1.106,1.106,0,0,1-1.125.233l-.21-.093a6.616,6.616,0,0,1-1.1-.784c-.373-.318-.776-.691-1.265-1.172-.38-.388-.761-.8-1.156-1.257a6.622,6.622,0,0,1-.792-1.094l-.093-.233a1.449,1.449,0,0,1-.062-.388,1,1,0,0,1,.295-.722l.582-.605a2.247,2.247,0,0,0,.349-.435A.5.5,0,0,0,7.4,5.945.721.721,0,0,0,7.342,5.7a2.226,2.226,0,0,0-.248-.411L5.293,2.74A.715.715,0,0,0,5.006,2.5.972.972,0,0,0,4.618,2.414Zm6.488,9.515-.124.528.21-.543A.1.1,0,0,0,11.106,11.929Z" transform="translate(0 0)" fill="#515c6f"/>
      <path id="Path_29926" data-name="Path 29926" d="M17.548,8.63a.586.586,0,0,1-.582-.582,2.589,2.589,0,0,0-.745-1.358,2.1,2.1,0,0,0-1.389-.776.582.582,0,1,1,0-1.164,3.174,3.174,0,0,1,2.235,1.141A3.59,3.59,0,0,1,18.13,8.048.586.586,0,0,1,17.548,8.63Z" transform="translate(-2.911 -0.784)" fill="#515c6f"/>
      <path id="Path_29927" data-name="Path 29927" d="M20.265,7.847a.586.586,0,0,1-.582-.582,4.852,4.852,0,0,0-4.851-4.851.582.582,0,1,1,0-1.164,6.025,6.025,0,0,1,6.015,6.015A.586.586,0,0,1,20.265,7.847Z" transform="translate(-2.911 0)" fill="#515c6f"/>
    </g>
  </g>
</svg>
