<?xml version="1.0" encoding="UTF-8" standalone="no"?> <svg width="24" height="24" viewBox="0 0 24 24" fill="none" xmlns="http://www.w3.org/2000/svg">
<path fill-rule="evenodd" clip-rule="evenodd" d="M20.2527 5.6669C18.3587 3.77288 15.3434 3.60588 13.2518 5.27915L12 6.28061L10.7482 5.27915C8.65658 3.60588 5.64131 3.77288 3.74729 5.6669C1.81816 7.59603 1.7014 10.6444 3.50893 12.6134C5.0821 14.3271 6.91486 16.2253 8.56475 17.6885C9.3915 18.4216 10.1498 19.0253 10.7912 19.4399C11.4834 19.8873 11.8696 20 12 20C12.1304 20 12.5166 19.8873 13.2088 19.4399C13.8501 19.0253 14.6085 18.4216 15.4352 17.6885C17.0851 16.2253 18.9179 14.3271 20.4911 12.6134C22.2986 10.6444 22.1818 7.59603 20.2527 5.6669ZM12.0024 3.71742C14.8898 1.40752 19.0523 1.63806 21.6669 4.25268C24.3141 6.89992 24.5336 11.1673 21.9644 13.9659C20.3753 15.697 18.4885 17.654 16.7622 19.1848C15.9009 19.9486 15.057 20.6266 14.2946 21.1195C13.583 21.5795 12.7639 22 12 22C11.2361 22 10.417 21.5795 9.70541 21.1195C8.94296 20.6266 8.09908 19.9486 7.23777 19.1848C5.51151 17.654 3.62472 15.697 2.0356 13.9659C-0.533577 11.1673 -0.314154 6.89992 2.33308 4.25268C4.94771 1.63806 9.11018 1.40752 11.9976 3.71742L12 3.71936L12.0024 3.71742Z" fill="#293644"/>
</svg>
