<svg id="Group_41106" data-name="Group 41106" xmlns="http://www.w3.org/2000/svg" width="19.251" height="19.23" viewBox="0 0 19.251 19.23">
  <path id="Path_29867" data-name="Path 29867" d="M16.06,20.5H5.691a4.448,4.448,0,0,1-4.441-4.45V9.419a4.926,4.926,0,0,1,1.719-3.5L7.8,2.157a4.655,4.655,0,0,1,5.274-.125L18.6,5.909a4.892,4.892,0,0,1,1.9,3.635v6.519A4.446,4.446,0,0,1,16.06,20.5ZM17.833,7.01,16.06,19.161l-10.193.387-3.275-.755V16.054a3.107,3.107,0,0,0,3.1,3.107H16.06c1.71,0,.929.194,1.024.241L5.691,19.161c0-.86,9.728-12.86,12.142-12.151L5.691,19.161C4.67,18.444,18.809,6.249,17.833,7.01Z" transform="translate(-1.25 -1.273)" fill="#1cd2d5"/>
  <path id="Path_29868" data-name="Path 29868" d="M11.922,18.279a.676.676,0,0,1-.672-.672V14.922a.672.672,0,0,1,1.343,0v2.686A.676.676,0,0,1,11.922,18.279Z" transform="translate(-2.296 -2.631)" fill="#fff"/>
</svg>
