<svg id="vuesax_linear_notification" data-name="vuesax/linear/notification" xmlns="http://www.w3.org/2000/svg" width="20" height="20" viewBox="0 0 20 20">
  <g id="notification">
    <path id="Vector" d="M0,0H20V20H0Z" fill="none" opacity="0"/>
    <g id="Group_41185" data-name="Group 41185" transform="translate(-0.596 -0.51)">
      <path id="Path_29920" data-name="Path 29920" d="M11.892,9.824a.647.647,0,0,1-.642-.642V6.332a.642.642,0,1,1,1.284,0v2.85A.641.641,0,0,1,11.892,9.824Z" transform="translate(-1.282 -0.641)" fill="#515c6f"/>
      <path id="Path_29921" data-name="Path 29921" d="M10.628,17.6a20.5,20.5,0,0,1-6.506-1.053A2.542,2.542,0,0,1,2.5,15.03a2.574,2.574,0,0,1,.248-2.208l1.087-1.815A3.859,3.859,0,0,0,4.285,9.38v-1.8a6.343,6.343,0,1,1,12.686,0v1.8a3.894,3.894,0,0,0,.454,1.626l1.087,1.815a2.544,2.544,0,0,1-1.378,3.724A20.266,20.266,0,0,1,10.628,17.6Zm0-15.065A5.063,5.063,0,0,0,5.569,7.591v1.8a5.085,5.085,0,0,1-.633,2.285L3.848,13.5a1.185,1.185,0,0,0,.685,1.84,19.452,19.452,0,0,0,12.206,0,1.218,1.218,0,0,0,.779-.753,1.25,1.25,0,0,0-.1-1.087l-1.087-1.815A5.085,5.085,0,0,1,15.7,9.4V7.6A5.078,5.078,0,0,0,10.628,2.533Z" fill="#515c6f"/>
      <path id="Path_29922" data-name="Path 29922" d="M11.412,22.313A3.507,3.507,0,0,1,7.92,18.82H9.2a2.208,2.208,0,1,0,4.417,0H14.9A3.5,3.5,0,0,1,11.412,22.313Z" transform="translate(-0.802 -2.532)" fill="#515c6f"/>
    </g>
  </g>
</svg>
