<svg id="Group_41117" data-name="Group 41117" xmlns="http://www.w3.org/2000/svg" width="19.257" height="19.231" viewBox="0 0 19.257 19.231">
  <path id="Path_29883" data-name="Path 29883" d="M10.879,20.51a2.057,2.057,0,0,1-1.487-.618L8.03,18.531a1.021,1.021,0,0,0-.537-.224H5.558a2.1,2.1,0,0,1-2.1-2.1V14.268a1.021,1.021,0,0,0-.224-.537L1.868,12.369a2.094,2.094,0,0,1-.618-1.487,2.058,2.058,0,0,1,.618-1.487L3.229,8.033A1.021,1.021,0,0,0,3.453,7.5V5.561a2.1,2.1,0,0,1,2.1-2.1H7.493a1.021,1.021,0,0,0,.537-.224L9.392,1.871a2.165,2.165,0,0,1,2.974,0l1.361,1.361a1.021,1.021,0,0,0,.537.224H16.2a2.1,2.1,0,0,1,2.1,2.1V7.5a1.021,1.021,0,0,0,.224.537l1.361,1.361a2.094,2.094,0,0,1,.618,1.487,2.057,2.057,0,0,1-.618,1.487L18.528,13.73a1.021,1.021,0,0,0-.224.537V16.2a2.1,2.1,0,0,1-2.1,2.1H14.264a1.021,1.021,0,0,0-.537.224l-1.361,1.361A2.057,2.057,0,0,1,10.879,20.51Zm-6.7-7.73A2.312,2.312,0,0,1,4.8,14.268V16.2a.761.761,0,0,0,.761.761H7.493a2.312,2.312,0,0,1,1.487.618l1.361,1.362a.779.779,0,0,0,1.075,0l1.361-1.362a2.312,2.312,0,0,1,1.487-.618H16.2a.761.761,0,0,0,.761-.761V14.268a2.312,2.312,0,0,1,.618-1.487l1.585-1.9c.143-.143,0,.206,0,0s0,.023,0,0l-1.585,3.1a3.539,3.539,0,0,1-.881-1.8l.263-6.626c0-.421.421,11.4,0,11.4l-1.892.618c-.5,0-2.823,1.72-3.181,1.362L9.943,19.4c-.287-.287-.759-1.951-1.046-1.664l-4.473-.547C4.066,17.547,5.09,4.8,4.588,4.8h.97a.761.761,0,0,0-.761.761V7.5c.414,2.507-.014,5.876-.372,6.234L2.594,11.419c-.143.143,0-.743,0-.537a.752.752,0,0,0,.224.537Z" transform="translate(-1.25 -1.28)" fill="#1cd2d5"/>
  <path id="Path_29884" data-name="Path 29884" d="M14.895,15.791a.9.9,0,1,1,.887-.9A.891.891,0,0,1,14.895,15.791Z" transform="translate(-2.579 -2.607)" fill="#fff"/>
  <path id="Path_29885" data-name="Path 29885" d="M8.9,9.791a.9.9,0,1,1,.887-.9A.891.891,0,0,1,8.9,9.791Z" transform="translate(-1.954 -1.981)" fill="#fff"/>
  <path id="Path_29886" data-name="Path 29886" d="M8.922,14.968a.664.664,0,0,1-.475-.2.676.676,0,0,1,0-.95l5.374-5.374a.671.671,0,0,1,.949.949L9.4,14.771A.664.664,0,0,1,8.922,14.968Z" transform="translate(-1.98 -2.007)" fill="#fff"/>
</svg>
