<svg xmlns="http://www.w3.org/2000/svg" width="250" height="250" viewBox="0 0 250 250">
  <g id="Group_41184" data-name="Group 41184" transform="translate(-16.421 -107)">
    <circle id="Ellipse_250" data-name="Ellipse 250" cx="125" cy="125" r="125" transform="translate(16.421 107)" fill="#1cd2d5" opacity="0.06"/>
    <circle id="Ellipse_251" data-name="Ellipse 251" cx="87.599" cy="87.599" r="87.599" transform="translate(53.528 144.528)" fill="#1cd2d5" opacity="0.11"/>
    <circle id="Ellipse_252" data-name="Ellipse 252" cx="65.675" cy="65.675" r="65.675" transform="translate(75.51 166.427)" fill="#1cd2d5" opacity="0.16"/>
    <path id="Path_29898" data-name="Path 29898" d="M717.072,384.852a9.191,9.191,0,1,1,.61-.017C717.477,384.845,717.275,384.852,717.072,384.852Zm.022-15.453q-.2,0-.408.014a6.2,6.2,0,1,0,4.493,1.531h0A6.147,6.147,0,0,0,717.094,369.4Z" transform="translate(-618.594 -221.467)" fill="#1cd2d5" opacity="0.94"/>
    <path id="Path_29899" data-name="Path 29899" d="M2063.561,949.952a8.7,8.7,0,1,1,8.7-8.7A8.711,8.711,0,0,1,2063.561,949.952Zm0-14.349a5.649,5.649,0,1,0,5.649,5.649A5.656,5.656,0,0,0,2063.561,935.6Z" transform="translate(-1828.765 -729.071)" fill="#1cd2d5" opacity="0.77"/>
    <path id="Path_29900" data-name="Path 29900" d="M1633.931,425.642a5.941,5.941,0,1,1,5.941-5.941A5.948,5.948,0,0,1,1633.931,425.642Zm0-8.83a2.889,2.889,0,1,0,2.889,2.889A2.893,2.893,0,0,0,1633.931,416.812Z" transform="translate(-1443.083 -263.843)" fill="#1cd2d5" opacity="0.65"/>
    <path id="Path_29901" data-name="Path 29901" d="M890.271,1834.092a5.941,5.941,0,1,1,5.941-5.941A5.949,5.949,0,0,1,890.271,1834.092Zm0-8.83a2.889,2.889,0,1,0,2.889,2.889A2.893,2.893,0,0,0,890.271,1825.262Z" transform="translate(-776.558 -1526.204)" fill="#1cd2d5" opacity="0.88"/>
    <path id="Path_29902" data-name="Path 29902" d="M235.561,1261.594a12.012,12.012,0,1,1,10.963-16.88h0a12.011,12.011,0,0,1-10.963,16.88Zm-.03-20.972a8.96,8.96,0,1,0,8.2,5.328h0A8.977,8.977,0,0,0,235.531,1240.622Z" transform="translate(-181.524 -1002.945)" fill="#1cd2d5" opacity="0.56"/>
    <g id="Group_41167" data-name="Group 41167" transform="translate(83.149 177.687)">
      <g id="Group_41165" data-name="Group 41165">
        <g id="Group_41159" data-name="Group 41159" transform="translate(7.365 47.182)">
          <path id="Path_29903" data-name="Path 29903" d="M867.765,1243.066h-70.3a5.393,5.393,0,0,1-5.14-5.343l-8.075-59.732a5.9,5.9,0,0,1,5.722-6.37h85.29a5.9,5.9,0,0,1,5.722,6.37l-8.075,59.732A5.393,5.393,0,0,1,867.765,1243.066Z" transform="translate(-781.947 -1169.331)" fill="#fff"/>
          <path id="Path_29904" data-name="Path 29904" d="M850.385,1227.973h-70.3a7.672,7.672,0,0,1-7.419-7.412l-8.081-59.827a8.5,8.5,0,0,1,2.281-6.294,7.821,7.821,0,0,1,5.726-2.491h85.291a7.821,7.821,0,0,1,5.726,2.491,8.5,8.5,0,0,1,2.281,6.294l-.018.182-8.063,59.646A7.67,7.67,0,0,1,850.385,1227.973Zm-81.237-67.57,8.08,59.818a3.12,3.12,0,0,0,2.853,3.174h70.306a3.12,3.12,0,0,0,2.853-3.174l.018-.187,8.062-59.631a3.9,3.9,0,0,0-1.039-2.815,3.293,3.293,0,0,0-2.4-1.06H772.587a3.288,3.288,0,0,0-2.4,1.06A3.9,3.9,0,0,0,769.148,1160.4Z" transform="translate(-764.568 -1151.95)" fill="#303030"/>
        </g>
        <path id="Path_29905" data-name="Path 29905" d="M803.724,1297.755s-9.132-53.655-7.61-54.493,83.328-.419,83.328-.419c1.522-1.677,1.88-8.384,1.88-8.384l-96.623,1.258,8.922,60.406,4.014,1.631h6.088Z" transform="translate(-774.992 -1177.677)" opacity="0.09"/>
        <path id="Path_29906" data-name="Path 29906" d="M1138.987,1521.761a1.517,1.517,0,0,1-.875-.277,12.238,12.238,0,0,0-14.172-.041,1.526,1.526,0,0,1-1.864-2.418c.085-.063,8.606-6.479,17.788-.041a1.527,1.527,0,0,1-.877,2.776Z" transform="translate(-1072.587 -1426.564)" fill="#515c6f"/>
        <path id="Path_29907" data-name="Path 29907" d="M850.385,1227.973h-70.3a7.672,7.672,0,0,1-7.419-7.412l-8.081-59.827a8.5,8.5,0,0,1,2.281-6.294,7.821,7.821,0,0,1,5.726-2.491h85.291a7.821,7.821,0,0,1,5.726,2.491,8.5,8.5,0,0,1,2.281,6.294l-.018.182-8.063,59.646A7.67,7.67,0,0,1,850.385,1227.973Zm-81.237-67.57,8.08,59.818a3.12,3.12,0,0,0,2.853,3.174h70.306a3.12,3.12,0,0,0,2.853-3.174l.018-.187,8.062-59.631a3.9,3.9,0,0,0-1.039-2.815,3.293,3.293,0,0,0-2.4-1.06H772.587a3.288,3.288,0,0,0-2.4,1.06A3.9,3.9,0,0,0,769.148,1160.4Z" transform="translate(-757.203 -1104.768)" fill="#515c6f"/>
        <g id="Group_41162" data-name="Group 41162" transform="translate(0 31.439)">
          <g id="Group_41160" data-name="Group 41160" transform="translate(11.643 2.289)">
            <path id="Path_29908" data-name="Path 29908" d="M802.078,1059.375h95.2c3.415,0,6.183-3.1,6.183-6.929v-9.2c0-3.827-2.768-6.929-6.183-6.929H801.33" transform="translate(-801.33 -1036.32)" fill="#1cd2d5"/>
          </g>
          <g id="Group_41161" data-name="Group 41161">
            <path id="Path_29909" data-name="Path 29909" d="M732.173,1036.32h-5.039c-3.415,0-6.183,3.1-6.183,6.929v9.2c0,3.827,2.768,6.929,6.183,6.929h8.78" transform="translate(-718.66 -1034.031)" fill="#127d7e"/>
            <path id="Path_29910" data-name="Path 29910" d="M808.857,1016.65H709.743c-4.672,0-8.473,4.136-8.473,9.216v9.2c0,5.084,3.8,9.216,8.473,9.216h99.114c4.672,0,8.473-4.134,8.473-9.216v-9.2C817.33,1020.785,813.529,1016.65,808.857,1016.65Zm3.9,18.414c0,2.559-1.749,4.64-3.9,4.64H709.743c-2.147,0-3.9-2.082-3.9-4.64v-9.2c0-2.559,1.749-4.638,3.9-4.638h99.114c2.147,0,3.9,2.079,3.9,4.638Z" transform="translate(-701.27 -1016.65)" fill="#515c6f"/>
          </g>
        </g>
        <g id="Group_41164" data-name="Group 41164" transform="translate(20.487)">
          <g id="Group_41163" data-name="Group 41163" transform="translate(0 42.176)">
            <ellipse id="Ellipse_253" data-name="Ellipse 253" cx="2.531" cy="2.452" rx="2.531" ry="2.452" fill="#515c6f"/>
            <ellipse id="Ellipse_254" data-name="Ellipse 254" cx="2.426" cy="2.096" rx="2.426" ry="2.096" transform="translate(69.813 0.144)" fill="#515c6f"/>
          </g>
          <path id="Path_29911" data-name="Path 29911" d="M878.023,791.276c-.115-1.312-.173-2.649-.173-3.972,0-22.526,16.73-40.854,37.294-40.854s37.294,18.327,37.294,40.854c0,1.176-.047,2.363-.137,3.528l-4.565-.357c.081-1.046.123-2.113.123-3.171,0-20-14.676-36.275-32.716-36.275S882.429,767.3,882.429,787.3c0,1.19.052,2.392.156,3.573Z" transform="translate(-877.791 -746.45)" fill="#515c6f"/>
        </g>
      </g>
      <g id="Group_41166" data-name="Group 41166" transform="translate(39.449 77.087)">
        <circle id="Ellipse_255" data-name="Ellipse 255" cx="2.859" cy="2.859" r="2.859" fill="#515c6f"/>
        <circle id="Ellipse_256" data-name="Ellipse 256" cx="2.859" cy="2.859" r="2.859" transform="translate(31.444)" fill="#515c6f"/>
      </g>
    </g>
    <g id="Group_41168" data-name="Group 41168" transform="translate(188.668 283.554)" opacity="0.76">
      <path id="Path_29912" data-name="Path 29912" d="M1678.5,1754.371h-11.037a1.525,1.525,0,1,1,0-3.051H1678.5a1.525,1.525,0,0,1,0,3.051Z" transform="translate(-1665.94 -1745.801)" fill="#1cd2d5"/>
      <path id="Path_29913" data-name="Path 29913" d="M1714.9,1717.979a1.526,1.526,0,0,1-1.526-1.526v-11.037a1.525,1.525,0,1,1,3.051,0v11.037A1.525,1.525,0,0,1,1714.9,1717.979Z" transform="translate(-1707.851 -1703.89)" fill="#1cd2d5"/>
    </g>
    <g id="Group_41169" data-name="Group 41169" transform="translate(68.855 186.403)" opacity="0.31">
      <path id="Path_29914" data-name="Path 29914" d="M516.778,796.271h-6.623a1.525,1.525,0,1,1,0-3.051h6.623a1.525,1.525,0,1,1,0,3.051Z" transform="translate(-508.63 -789.909)" fill="#1cd2d5"/>
      <path id="Path_29915" data-name="Path 29915" d="M538.615,774.434a1.525,1.525,0,0,1-1.525-1.525v-6.623a1.525,1.525,0,1,1,3.051,0v6.623A1.525,1.525,0,0,1,538.615,774.434Z" transform="translate(-533.779 -764.76)" fill="#1cd2d5"/>
    </g>
    <g id="Group_41170" data-name="Group 41170" transform="translate(79.841 182.481)">
      <path id="Path_29916" data-name="Path 29916" d="M687.8,747a2.283,2.283,0,0,1-1.618-.67L673.49,733.637a2.289,2.289,0,0,1,3.237-3.237l12.693,12.693A2.29,2.29,0,0,1,687.8,747Z" transform="translate(-672.82 -729.73)" fill="#515c6f"/>
      <path id="Path_29917" data-name="Path 29917" d="M1581.039,751.751a2.289,2.289,0,0,1-1.619-3.907l12.693-12.693a2.289,2.289,0,1,1,3.237,3.237l-12.693,12.693A2.285,2.285,0,0,1,1581.039,751.751Z" transform="translate(-1473.34 -733.927)" fill="#515c6f"/>
    </g>
    <path id="Path_29918" data-name="Path 29918" d="M1177.869,508.649a2.289,2.289,0,0,1-2.289-2.289V485.389a2.289,2.289,0,0,1,4.578,0V506.36A2.288,2.288,0,0,1,1177.869,508.649Z" transform="translate(-1037.205 -326.32)" fill="#515c6f"/>
  </g>
</svg>
