<?xml version="1.0" encoding="UTF-8" standalone="no"?> <svg width="24" height="24" viewBox="0 0 24 24" fill="none" xmlns="http://www.w3.org/2000/svg">
<path fill-rule="evenodd" clip-rule="evenodd" d="M19 3C17.8954 3 17 3.89543 17 5C17 5.32338 17.076 5.62613 17.2102 5.89402C17.5398 6.5519 18.2185 7 19 7C20.1046 7 21 6.10457 21 5C21 3.89543 20.1046 3 19 3ZM15 5C15 2.79086 16.7909 1 19 1C21.2091 1 23 2.79086 23 5C23 7.20914 21.2091 9 19 9C17.7951 9 16.7158 8.4672 15.9832 7.62643L8.91189 11.1621C8.96964 11.4327 9 11.7131 9 12C9 12.2869 8.96964 12.5673 8.91189 12.8379L15.9832 16.3736C16.7158 15.5328 17.7951 15 19 15C21.2091 15 23 16.7909 23 19C23 21.2091 21.2091 23 19 23C16.7909 23 15 21.2091 15 19C15 18.7131 15.0304 18.4327 15.0881 18.1621L8.0168 14.6264C7.2842 15.4672 6.20485 16 5 16C2.79086 16 1 14.2091 1 12C1 9.79086 2.79086 8 5 8C6.20485 8 7.2842 8.5328 8.0168 9.37357L15.0881 5.83791C15.0304 5.5673 15 5.28691 15 5ZM5 10C3.89543 10 3 10.8954 3 12C3 13.1046 3.89543 14 5 14C5.78153 14 6.46021 13.5519 6.78979 12.894C6.924 12.6261 7 12.3234 7 12C7 11.6766 6.924 11.3739 6.78979 11.106C6.46021 10.4481 5.78153 10 5 10ZM19 17C18.2185 17 17.5398 17.4481 17.2102 18.106C17.076 18.3739 17 18.6766 17 19C17 20.1046 17.8954 21 19 21C20.1046 21 21 20.1046 21 19C21 17.8954 20.1046 17 19 17Z" fill="#293644"/>
</svg>
