<svg xmlns="http://www.w3.org/2000/svg" width="17.989" height="17.989" viewBox="0 0 17.989 17.989">
  <g id="Group_41121" data-name="Group 41121" transform="translate(-1.251 -1.25)">
    <path id="Path_29891" data-name="Path 29891" d="M11.164,12.545h-.837a.628.628,0,1,1,0-1.255h.837a1.046,1.046,0,0,0,1.046-1.046V2.505h-6.9A2.727,2.727,0,0,0,2.931,3.9a.627.627,0,1,1-1.1-.611A3.99,3.99,0,0,1,5.308,1.25h7.53a.632.632,0,0,1,.628.628v8.367A2.3,2.3,0,0,1,11.164,12.545Z" transform="translate(-0.083 0)" fill="#727c8e"/>
    <path id="Path_29892" data-name="Path 29892" d="M16.1,18.055h-.837a.632.632,0,0,1-.628-.628,1.046,1.046,0,0,0-2.092,0,.632.632,0,0,1-.628.628H8.572a.632.632,0,0,1-.628-.628,1.046,1.046,0,0,0-2.092,0,.632.632,0,0,1-.628.628H4.389a3.139,3.139,0,0,1-3.138-3.138.628.628,0,1,1,1.255,0A1.885,1.885,0,0,0,4.389,16.8h.293a2.306,2.306,0,0,1,4.434,0h2.267a2.306,2.306,0,0,1,4.434,0H16.1a1.885,1.885,0,0,0,1.883-1.883V13.035H16.1a1.471,1.471,0,0,1-1.464-1.464V9.061A1.466,1.466,0,0,1,16.1,7.6l-.9-1.565a1.047,1.047,0,0,0-.912-.527h-.912v5.229a2.3,2.3,0,0,1-2.3,2.3h-.837a.628.628,0,1,1,0-1.255h.837a1.046,1.046,0,0,0,1.046-1.046V4.878a.632.632,0,0,1,.628-.628h1.539a2.3,2.3,0,0,1,2,1.163l1.431,2.5a.644.644,0,0,1,0,.628.622.622,0,0,1-.544.31H16.1a.207.207,0,0,0-.209.209v2.51a.207.207,0,0,0,.209.209h2.51a.632.632,0,0,1,.628.628v2.51A3.139,3.139,0,0,1,16.1,18.055Z" transform="translate(0 -0.49)" fill="#727c8e"/>
    <path id="Path_29893" data-name="Path 29893" d="M7.552,21.852a2.3,2.3,0,1,1,2.3-2.3A2.3,2.3,0,0,1,7.552,21.852Zm0-3.347A1.046,1.046,0,1,0,8.6,19.551,1.046,1.046,0,0,0,7.552,18.505Z" transform="translate(-0.653 -2.613)" fill="#727c8e"/>
    <path id="Path_29894" data-name="Path 29894" d="M15.552,21.852a2.3,2.3,0,1,1,2.3-2.3A2.3,2.3,0,0,1,15.552,21.852Zm0-3.347A1.046,1.046,0,1,0,16.6,19.551,1.046,1.046,0,0,0,15.552,18.505Z" transform="translate(-1.96 -2.613)" fill="#727c8e"/>
    <path id="Path_29895" data-name="Path 29895" d="M21.225,13.688h-2.51a1.471,1.471,0,0,1-1.464-1.464V9.714A1.471,1.471,0,0,1,18.715,8.25h1.079a.613.613,0,0,1,.544.318l1.431,2.51a.659.659,0,0,1,.084.31v1.673A.632.632,0,0,1,21.225,13.688Zm-2.51-4.183a.207.207,0,0,0-.209.209v2.51a.207.207,0,0,0,.209.209H20.6v-.879l-1.171-2.05Z" transform="translate(-2.613 -1.143)" fill="#727c8e"/>
    <path id="Path_29896" data-name="Path 29896" d="M6.9,8.505H1.878a.628.628,0,0,1,0-1.255H6.9a.628.628,0,0,1,0,1.255Z" transform="translate(0 -0.98)" fill="#727c8e"/>
    <path id="Path_29897" data-name="Path 29897" d="M5.225,11.505H1.878a.628.628,0,0,1,0-1.255H5.225a.628.628,0,0,1,0,1.255Z" transform="translate(0 -1.47)" fill="#727c8e"/>
    <path id="Path_29898" data-name="Path 29898" d="M3.552,14.505H1.878a.628.628,0,0,1,0-1.255H3.552a.628.628,0,1,1,0,1.255Z" transform="translate(0 -1.96)" fill="#727c8e"/>
  </g>
</svg>
