<svg id="vuesax_linear_messages-2" data-name="vuesax/linear/messages-2" xmlns="http://www.w3.org/2000/svg" width="20" height="20" viewBox="0 0 20 20">
  <g id="messages-2">
    <path id="Vector" d="M11.779,12.357,12.1,14.99a.83.83,0,0,1-1.25.817L7.361,13.732a8.324,8.324,0,0,1-1.125-.075,4.049,4.049,0,0,0,.984-2.633A4.44,4.44,0,0,0,2.634,6.741a4.739,4.739,0,0,0-2.6.758A5.28,5.28,0,0,1,0,6.866,7.125,7.125,0,0,1,7.361,0a7.125,7.125,0,0,1,7.361,6.866A6.711,6.711,0,0,1,11.779,12.357Z" transform="translate(3.611 1.667)" fill="none" stroke="#515c6f" stroke-linecap="round" stroke-linejoin="round" stroke-width="1.5"/>
    <path id="Vector-2" data-name="Vector" d="M9.17,4.285a4.052,4.052,0,0,1-.984,2.634,4.655,4.655,0,0,1-3.6,1.642L2.409,9.853a.521.521,0,0,1-.784-.508L1.834,7.7A4.158,4.158,0,0,1,0,4.285,4.187,4.187,0,0,1,1.984.759,4.738,4.738,0,0,1,4.585,0,4.44,4.44,0,0,1,9.17,4.285Z" transform="translate(1.667 8.404)" fill="none" stroke="#515c6f" stroke-linecap="round" stroke-linejoin="round" stroke-width="1.5"/>
    <path id="Vector-3" data-name="Vector" d="M0,0H20V20H0Z" fill="none" opacity="0"/>
  </g>
</svg>
