<svg xmlns="http://www.w3.org/2000/svg" width="23.975" height="23.976" viewBox="0 0 23.975 23.976">
  <g id="Group_41196" data-name="Group 41196" transform="translate(-1.25 -1.25)">
    <path id="Path_29929" data-name="Path 29929" d="M12.6,14.457h-.19a4.45,4.45,0,1,1,.223,0Zm-.134-7.315a2.822,2.822,0,0,0-.112,5.643.937.937,0,0,1,.256,0,2.823,2.823,0,0,0-.145-5.643Z" transform="translate(0.775 0.487)" fill="#fff"/>
    <path id="Path_29930" data-name="Path 29930" d="M12.863,23.678a11.943,11.943,0,0,1-8.085-3.145.842.842,0,0,1-.268-.7,4.916,4.916,0,0,1,2.342-3.479,11.736,11.736,0,0,1,12.021,0,4.937,4.937,0,0,1,2.342,3.479.8.8,0,0,1-.268.7A11.943,11.943,0,0,1,12.863,23.678Zm-6.6-4.07a10.288,10.288,0,0,0,13.2,0,3.625,3.625,0,0,0-1.528-1.873,10.091,10.091,0,0,0-10.159,0A3.6,3.6,0,0,0,6.261,19.607Z" transform="translate(0.375 1.548)" fill="#fff"/>
    <path id="Path_29931" data-name="Path 29931" d="M13.238,25.225A11.988,11.988,0,1,1,25.225,13.238,12,12,0,0,1,13.238,25.225Zm0-22.3A10.315,10.315,0,1,0,23.553,13.238,10.327,10.327,0,0,0,13.238,2.923Z" fill="#fff"/>
  </g>
</svg>
